<svg width="182" height="200" viewBox="0 0 182 200" fill="none" xmlns="http://www.w3.org/2000/svg">
<path fill-rule="evenodd" clip-rule="evenodd" d="M-69.8619 106.728L-58.8464 95.7123L-50.6367 103.922L-61.6521 114.938C-68.6188 121.904 -68.6188 133.199 -61.6521 140.166C-54.6855 147.133 -43.3903 147.133 -36.4237 140.166L-25.0547 128.797L-16.1378 119.88L8.02993 95.7123L16.2397 103.922L-7.9281 128.09L-16.845 137.007L-28.2139 148.376C-39.7147 159.876 -58.3611 159.876 -69.8619 148.376C-81.3626 136.875 -81.3626 118.229 -69.8619 106.728ZM-17.1985 119.527L-25.4083 127.736L-49.576 103.569L-58.4929 94.6517L-70.7536 82.391C-82.2543 70.8903 -82.2543 52.2438 -70.7536 40.7431C-59.2528 29.2423 -40.6064 29.2423 -29.1056 40.7431L-17.1985 52.6502L-25.4083 60.8599L-37.3154 48.9528C-44.282 41.9862 -55.5772 41.9862 -62.5438 48.9528C-69.5105 55.9195 -69.5105 67.2146 -62.5438 74.1813L-50.2831 86.4419L-41.3663 95.3588L-17.1985 119.527ZM-41.0127 94.2981L-49.2225 86.0884L-25.0547 61.9206L-16.1379 53.0038L8.02993 28.836L16.2397 37.0457L-7.92811 61.2135L-16.845 70.1304L-41.0127 94.2981ZM17.3003 36.6922L41.4681 60.8599L49.6779 52.6502L25.5101 28.4824L16.5932 19.5656L4.33257 7.3049C-2.63408 0.338261 -2.63407 -10.9569 4.33256 -17.9235C11.2992 -24.8902 22.5944 -24.8902 29.561 -17.9235L41.4681 -6.01643L49.6779 -14.2262L37.7708 -26.1333C26.27 -37.634 7.62358 -37.634 -3.87718 -26.1333C-15.3779 -14.6325 -15.3779 4.0139 -3.87718 15.5147L8.38348 27.7753L17.3003 36.6922ZM50.0314 3.25398L25.8636 27.4218L17.6539 19.212L41.8217 -4.95577L50.7385 -13.8726L63.8909 -27.025C75.3916 -38.5257 94.0381 -38.5257 105.539 -27.025C117.04 -15.5242 117.04 3.1222 105.539 14.623L92.74 27.4218L84.5303 19.212L97.3291 6.41321C104.296 -0.553432 104.296 -11.8486 97.3291 -18.8152C90.3624 -25.7819 79.0673 -25.7819 72.1006 -18.8152L58.9483 -5.66288L50.0314 3.25398ZM51.0921 3.60753L59.3018 -4.60222L83.4696 19.5656L92.3865 28.4824L116.908 53.0038L125.825 61.9206L150.346 86.4419L159.263 95.3588L171.524 107.619C183.024 119.12 183.024 137.767 171.524 149.267C160.023 160.768 141.376 160.768 129.876 149.267L117.968 137.36L126.178 129.151L138.085 141.058C145.052 148.024 156.347 148.024 163.314 141.058C170.28 134.091 170.28 122.796 163.314 115.829L151.053 103.569L142.136 94.6517L117.615 70.1304L108.698 61.2135L84.1767 36.6922L75.2599 27.7753L51.0921 3.60753ZM141.783 95.7123L149.992 103.922L125.825 128.09L116.908 137.007L92.74 161.175L84.5303 152.965L108.698 128.797L117.615 119.88L141.783 95.7123ZM83.4696 153.318L59.3018 129.151L51.0921 137.36L75.2599 161.528L84.1767 170.445L96.4374 182.706C103.404 189.672 103.404 200.967 96.4374 207.934C89.4707 214.901 78.1756 214.901 71.2089 207.934L59.3018 196.027L51.0921 204.237L62.9992 216.144C74.5 227.645 93.1464 227.645 104.647 216.144C116.148 204.643 116.148 185.997 104.647 174.496L92.3865 162.235L83.4696 153.318ZM50.7385 186.757L74.9063 162.589L83.1161 170.798L58.9483 194.966L50.0314 203.883L38.6624 215.252C27.1617 226.753 8.51527 226.753 -2.9855 215.252C-14.4863 203.751 -14.4862 185.105 -2.98549 173.604L8.38349 162.235L17.3003 153.318L41.8217 128.797L50.7385 119.88L74.9063 95.7124L83.116 103.922L58.9483 128.09L50.0314 137.007L25.5101 161.528L16.5932 170.445L5.22425 181.814C-1.74239 188.781 -1.74239 200.076 5.22425 207.042C12.1909 214.009 23.4861 214.009 30.4527 207.042L41.8217 195.673L50.7385 186.757ZM25.5101 95.3588L49.6779 119.527L41.4681 127.736L17.3003 103.569L8.38349 94.6517L-15.7843 70.4839L-7.57455 62.2742L16.5932 86.4419L25.5101 95.3588ZM-7.57455 129.151L16.2397 152.965L8.02994 161.175L-15.7843 137.36L-7.57455 129.151ZM50.0314 70.1304L25.8636 94.2981L17.6539 86.0884L41.8217 61.9206L50.7385 53.0038L74.9063 28.836L83.1161 37.0457L58.9483 61.2135L50.0314 70.1304ZM92.74 94.2981L84.5303 86.0884L108.345 62.2742L116.554 70.4839L92.74 94.2981ZM92.3865 95.3588L116.554 119.527L108.344 127.736L84.1767 103.569L75.2599 94.6517L51.0921 70.4839L59.3018 62.2742L83.4696 86.442L92.3865 95.3588ZM17.6539 170.798L25.8636 162.589L49.6779 186.403L41.4681 194.613L17.6539 170.798ZM172.415 81.4993L159.616 94.2981L151.407 86.0884L164.205 73.2896C171.172 66.3229 171.172 55.0278 164.205 48.0611C157.239 41.0945 145.944 41.0945 138.977 48.0611L126.178 60.8599L117.968 52.6502L130.767 39.8514C142.268 28.3507 160.914 28.3506 172.415 39.8514C183.916 51.3522 183.916 69.9986 172.415 81.4993Z" fill="black" fill-opacity="0.7"/>
</svg>
